<?xml version="1.0" encoding="utf-8"?>
<!-- Generator: Adobe Illustrator 27.5.0, SVG Export Plug-In . SVG Version: 6.00 Build 0)  -->
<svg version="1.1" xmlns="http://www.w3.org/2000/svg" xmlns:xlink="http://www.w3.org/1999/xlink" x="0px" y="0px"
	 viewBox="0 0 500 500" style="enable-background:new 0 0 500 500;" xml:space="preserve">
<g id="BACKGROUND">
	<rect style="fill:#000025;" width="500" height="500"/>
</g>
<g id="OBJECTS">
	<g>
		<g>
			<path style="fill:#2B2751;" d="M375.168,238.918L272.716,41.094c-0.424-0.818-1.268-1.332-2.19-1.332s-1.767,0.514-2.19,1.332
				L165.883,238.918c-0.494,0.955-0.313,2.119,0.446,2.879l102.452,102.452c0.481,0.481,1.113,0.723,1.744,0.723
				c0.631,0,1.263-0.241,1.744-0.723l102.452-102.452C375.481,241.037,375.662,239.873,375.168,238.918z"/>
			<g>
				<g>
					<polygon style="fill:#1B0063;" points="154.272,239.585 253.704,47.592 353.135,239.585 253.704,339.017 					"/>
					<g>
						<polyline style="fill:#F22EAD;" points="253.704,268.282 151.252,240.053 253.704,342.331 356.156,240.053 253.704,268.282 
													"/>
						<polygon style="fill:#7800B1;" points="253.704,215.562 218.904,109.424 288.504,109.424 						"/>
						<polyline style="fill:#F22EAD;" points="253.704,268.282 163.694,215.562 343.713,215.562 253.704,268.282 						"/>
						<g>
							<ellipse style="fill:#1B0063;" cx="254.16" cy="264.252" rx="16.365" ry="15.031"/>
							<path style="fill:#FFFFFF;" d="M253.704,291.191c-14.589,0-26.457-11.869-26.457-26.457
								c0-14.588,11.869-26.457,26.457-26.457c14.588,0,26.457,11.869,26.457,26.457
								C280.161,279.323,268.292,291.191,253.704,291.191z M253.704,251.495c-7.3,0-13.24,5.94-13.24,13.24
								c0,7.3,5.939,13.24,13.24,13.24c7.3,0,13.24-5.94,13.24-13.24C266.943,257.434,261.004,251.495,253.704,251.495z"/>
							<rect x="250.331" y="231.983" style="fill:#87F2E7;" width="6.745" height="30.953"/>
						</g>
					</g>
				</g>
				<path style="fill:#87F2E7;" d="M253.704,344.972c-0.631,0-1.263-0.241-1.744-0.723L149.508,241.797
					c-0.76-0.76-0.941-1.924-0.446-2.879L251.513,41.094c0.424-0.818,1.269-1.332,2.19-1.332c0.922,0,1.767,0.514,2.19,1.332
					l102.452,197.824c0.494,0.955,0.313,2.119-0.446,2.879L255.448,344.249C254.967,344.73,254.335,344.972,253.704,344.972z
					 M154.272,239.585l99.432,99.432l99.432-99.432L253.704,47.592L154.272,239.585z"/>
			</g>
		</g>
		<g>
			<text transform="matrix(1 0 0 1 110.0933 403.8711)" style="fill:#FFFFFF; font-family:'Audiowide-Regular'; font-size:41px;">DELTATECH</text>
			<text transform="matrix(1 0 0 1 174.6465 450.8276)" style="fill:#87F2E7; font-family:'Audiowide-Regular'; font-size:33px;">GAMING</text>
		</g>
	</g>
</g>
</svg>
